<?xml version="1.0" standalone="no"?>
<!DOCTYPE svg PUBLIC "-//W3C//DTD SVG 20010904//EN"
 "http://www.w3.org/TR/2001/REC-SVG-20010904/DTD/svg10.dtd">
<svg version="1.0" xmlns="http://www.w3.org/2000/svg"
 width="204.000000pt" height="204.000000pt" viewBox="0 0 204.000000 204.000000"
 preserveAspectRatio="xMidYMid meet">
<metadata>
Created by potrace 1.11, written by Peter Selinger 2001-2013
</metadata>
<g transform="translate(0.000000,204.000000) scale(0.100000,-0.100000)"
fill="#000000" stroke="none">
<path d="M76 2007 c-21 -12 -47 -38 -58 -57 -18 -34 -18 -73 -16 -945 l3 -910
22 -31 c48 -67 -5 -64 997 -64 706 0 911 3 929 13 37 21 76 69 82 101 3 17 4
434 3 926 l-3 895 -23 33 c-47 65 -2 62 -996 62 l-901 0 -39 -23z"/>
</g>
</svg>
