<?xml version="1.0" standalone="no"?>
<!DOCTYPE svg PUBLIC "-//W3C//DTD SVG 20010904//EN"
 "http://www.w3.org/TR/2001/REC-SVG-20010904/DTD/svg10.dtd">
<svg version="1.0" xmlns="http://www.w3.org/2000/svg"
 width="541.000000pt" height="541.000000pt" viewBox="0 0 541.000000 541.000000"
 preserveAspectRatio="xMidYMid meet">
<metadata>
Created by potrace 1.11, written by Peter Selinger 2001-2013
</metadata>
<g transform="translate(0.000000,541.000000) scale(0.100000,-0.100000)"
fill="#000000" stroke="none">
<path d="M2609 4876 c-2 -2 -38 -6 -79 -10 -83 -7 -101 -10 -212 -31 -224 -44
-540 -167 -685 -266 -23 -16 -45 -29 -48 -29 -12 0 -140 -93 -239 -173 -49
-40 -199 -188 -246 -243 -241 -280 -401 -600 -480 -954 -37 -167 -48 -293 -45
-490 4 -209 10 -268 52 -460 10 -51 12 -55 13 -55 1 0 3 -8 5 -17 30 -155 207
-534 317 -678 20 -26 102 -132 128 -164 22 -27 200 -206 235 -236 255 -217
578 -384 900 -464 97 -24 118 -28 215 -42 25 -3 56 -8 70 -11 49 -9 406 -11
475 -2 86 11 133 18 165 24 14 3 39 8 55 11 328 59 736 260 1000 494 65 58
198 192 235 239 19 24 40 48 45 55 6 6 33 43 61 81 166 231 291 510 350 780
18 80 18 84 35 185 14 91 20 412 9 495 -5 33 -11 85 -15 115 -4 30 -13 86 -22
124 -8 37 -16 73 -17 80 -5 28 -40 138 -68 216 -81 226 -204 439 -368 638 -51
63 -206 221 -262 268 -45 38 -182 139 -228 168 -25 16 -57 37 -71 47 -15 10
-87 47 -160 83 -154 74 -314 133 -439 162 -190 43 -361 63 -541 63 -75 0 -138
-2 -140 -3z"/>
</g>
</svg>
